<svg width="241" height="25" viewBox="0 0 241 25" fill="none" xmlns="http://www.w3.org/2000/svg">
<path d="M7.10712 21.1923C7.10712 21.859 7.15834 22.3462 7.26079 22.6538C7.36323 22.9359 7.55532 23.1282 7.83704 23.2308C8.14437 23.3333 8.63099 23.3846 9.29688 23.3846H10.6031C12.6007 23.3846 14.3295 22.859 15.7893 21.8077C17.2492 20.7308 18.2224 19.2821 18.709 17.4615C18.709 17.4103 18.7602 17.3846 18.8627 17.3846C18.9139 17.3846 18.9651 17.4103 19.0163 17.4615C19.0932 17.4872 19.1316 17.5128 19.1316 17.5385C18.9011 20.0769 18.7858 22.1923 18.7858 23.8846C18.7858 24.0897 18.7346 24.2436 18.6322 24.3462C18.5553 24.4231 18.4145 24.4615 18.2096 24.4615H0.0768337C0.0256112 24.4615 0 24.3846 0 24.2308C0 24.0769 0.0256112 24 0.0768337 24C0.896393 24 1.48545 23.9359 1.84401 23.8077C2.22818 23.6795 2.48429 23.4359 2.61235 23.0769C2.76601 22.6923 2.84285 22.1154 2.84285 21.3462V3.53846C2.84285 2.76923 2.76601 2.20513 2.61235 1.84616C2.48429 1.48718 2.22818 1.24359 1.84401 1.11538C1.45984 0.961538 0.870782 0.884615 0.0768337 0.884615C0.0256112 0.884615 0 0.807693 0 0.653847C0 0.500001 0.0256112 0.423078 0.0768337 0.423078L2.03609 0.461539C3.21421 0.512821 4.18744 0.538461 4.95577 0.538461C5.72411 0.538461 6.69734 0.512821 7.87545 0.461539L9.83471 0.423078C9.91155 0.423078 9.94996 0.500001 9.94996 0.653847C9.94996 0.807693 9.91155 0.884615 9.83471 0.884615C9.04077 0.884615 8.45171 0.961538 8.06754 1.11538C7.68337 1.24359 7.42726 1.5 7.2992 1.88462C7.17115 2.24359 7.10712 2.80769 7.10712 3.57692V21.1923Z" fill="#3A3A3A"/>
<path d="M41.0262 5.34615C41.0262 3.96154 40.7061 2.8718 40.0658 2.07692C39.4511 1.28205 38.5803 0.884615 37.4534 0.884615C37.4022 0.884615 37.3766 0.807693 37.3766 0.653847C37.3766 0.500001 37.4022 0.423078 37.4534 0.423078L39.2974 0.461539C40.2707 0.512821 41.0518 0.538461 41.6409 0.538461C42.1275 0.538461 42.8318 0.512821 43.7538 0.461539L45.521 0.423078C45.5722 0.423078 45.5978 0.500001 45.5978 0.653847C45.5978 0.807693 45.5722 0.884615 45.521 0.884615C44.5221 0.884615 43.741 1.28205 43.1775 2.07692C42.6141 2.8718 42.3324 3.96154 42.3324 5.34615V16.0385C42.3324 17.8333 41.9354 19.4103 41.1414 20.7692C40.3475 22.1282 39.2206 23.1795 37.7608 23.9231C36.3265 24.641 34.6618 25 32.7666 25C30.8713 25 29.1938 24.641 27.734 23.9231C26.2741 23.2051 25.1216 22.1667 24.2764 20.8077C23.4569 19.4231 23.0471 17.8077 23.0471 15.9615V3.53846C23.0471 2.76923 22.9703 2.20513 22.8166 1.84616C22.6886 1.48718 22.4324 1.24359 22.0483 1.11538C21.6897 0.961538 21.1135 0.884615 20.3195 0.884615C20.2427 0.884615 20.2043 0.807693 20.2043 0.653847C20.2043 0.500001 20.2427 0.423078 20.3195 0.423078L22.3556 0.461539C23.5337 0.512821 24.4685 0.538461 25.16 0.538461C25.9284 0.538461 26.9016 0.512821 28.0797 0.461539L30.039 0.423078C30.1158 0.423078 30.1542 0.500001 30.1542 0.653847C30.1542 0.807693 30.1158 0.884615 30.039 0.884615C29.245 0.884615 28.656 0.961538 28.2718 1.11538C27.9132 1.26923 27.6571 1.53846 27.5035 1.92308C27.3754 2.28205 27.3114 2.84615 27.3114 3.61538V14.6154C27.3114 17.6667 27.9132 19.9231 29.117 21.3846C30.3207 22.8462 32.0238 23.5769 34.2264 23.5769C36.3521 23.5769 38.0169 22.9359 39.2206 21.6538C40.4243 20.3462 41.0262 18.4872 41.0262 16.0769V5.34615Z" fill="#3A3A3A"/>
<path d="M61.5072 0C62.6341 0 63.8122 0.102564 65.0415 0.307693C66.2709 0.487179 67.2313 0.730769 67.9228 1.03846C68.1533 1.11539 68.2942 1.21795 68.3454 1.34615C68.4222 1.44872 68.4862 1.64103 68.5375 1.92308L68.9985 7.26923C68.9985 7.34615 68.9344 7.39744 68.8064 7.42308C68.6783 7.44872 68.6015 7.41026 68.5759 7.30769C67.7051 5.28205 66.5398 3.71795 65.0799 2.61539C63.6201 1.51282 61.9298 0.96154 60.0089 0.96154C57.4734 0.96154 55.5141 1.89744 54.1311 3.76923C52.7481 5.64103 52.0566 8.15385 52.0566 11.3077C52.0566 13.6667 52.428 15.8205 53.1707 17.7692C53.9391 19.7179 55.0019 21.2692 56.3593 22.4231C57.7423 23.5513 59.3046 24.1154 61.0462 24.1154C62.6853 24.1154 64.1451 23.5769 65.4257 22.5C66.7319 21.3974 67.8972 19.7308 68.9216 17.5C68.9472 17.3974 69.0241 17.359 69.1521 17.3846C69.3058 17.4103 69.3826 17.4615 69.3826 17.5385L68.8064 22.7692C68.7552 23.0769 68.6911 23.2821 68.6143 23.3846C68.5631 23.4615 68.4222 23.5513 68.1917 23.6538C65.9123 24.5 63.5689 24.9231 61.1614 24.9231C58.0369 24.9231 55.4245 24.3077 53.3244 23.0769C51.2243 21.8205 49.6748 20.2436 48.676 18.3462C47.7027 16.4231 47.2161 14.4231 47.2161 12.3462C47.2161 9.91026 47.8692 7.75641 49.1754 5.88462C50.5072 4.01282 52.2615 2.5641 54.4385 1.53846C56.641 0.512821 58.9973 0 61.5072 0Z" fill="#3A3A3A"/>
<path d="M79.2152 11.8846H87.1291L87.398 12.9615H78.639L79.2152 11.8846ZM97.809 24C97.9371 24 98.0011 24.0769 98.0011 24.2308C98.0011 24.3846 97.9371 24.4615 97.809 24.4615C97.2968 24.4615 96.5028 24.4359 95.4272 24.3846C94.3003 24.3333 93.4935 24.3077 93.0069 24.3077C92.3666 24.3077 91.5855 24.3333 90.6635 24.3846C89.7927 24.4359 89.1012 24.4615 88.589 24.4615C88.4865 24.4615 88.4353 24.3846 88.4353 24.2308C88.4353 24.0769 88.4865 24 88.589 24C89.2548 24 89.7287 23.9359 90.0104 23.8077C90.3177 23.6538 90.4714 23.3974 90.4714 23.0385C90.4714 22.6026 90.2153 21.8718 89.703 20.8462L81.9044 5.42308L83.7868 2.11538L76.1419 19C75.809 19.7436 75.6425 20.4359 75.6425 21.0769C75.6425 22 75.9626 22.7179 76.6029 23.2308C77.2688 23.7436 78.1524 24 79.2537 24C79.3817 24 79.4457 24.0769 79.4457 24.2308C79.4457 24.3846 79.3817 24.4615 79.2537 24.4615C78.7927 24.4615 78.1268 24.4359 77.256 24.3846C76.2828 24.3333 75.4376 24.3077 74.7205 24.3077C74.029 24.3077 73.1966 24.3333 72.2234 24.3846C71.3526 24.4359 70.6483 24.4615 70.1105 24.4615C70.008 24.4615 69.9568 24.3846 69.9568 24.2308C69.9568 24.0769 70.008 24 70.1105 24C70.8276 24 71.4294 23.859 71.916 23.5769C72.4027 23.2692 72.8893 22.7436 73.3759 22C73.8625 21.2308 74.4388 20.1026 75.1046 18.6154L83.4411 0.269232C83.4923 0.192308 83.6076 0.153846 83.7868 0.153846C83.9917 0.153846 84.107 0.192308 84.1326 0.269232L93.7368 19.1923C94.6332 21.0128 95.3759 22.2692 95.965 22.9615C96.554 23.6538 97.1687 24 97.809 24Z" fill="#3A3A3A"/>
<path d="M103.68 4.30769C103.68 5.23077 103.91 6.05128 104.371 6.76923C104.858 7.48718 105.447 8.11539 106.139 8.65385C106.83 9.19231 107.765 9.84615 108.943 10.6154C110.224 11.4359 111.248 12.1538 112.016 12.7692C112.785 13.3846 113.438 14.141 113.976 15.0385C114.513 15.9103 114.782 16.9231 114.782 18.0769C114.782 19.4103 114.424 20.6026 113.707 21.6538C112.99 22.6795 111.991 23.4872 110.71 24.0769C109.455 24.641 108.047 24.9231 106.484 24.9231C105.357 24.9231 104.154 24.7692 102.873 24.4615C101.618 24.1282 100.773 23.7692 100.338 23.3846C100.21 23.2821 100.107 23.1923 100.03 23.1154C99.9791 23.0128 99.9534 22.859 99.9534 22.6538L99.8382 16.5385V16.5C99.8382 16.3974 99.9022 16.3462 100.03 16.3462C100.158 16.3205 100.235 16.359 100.261 16.4615C101.029 18.0256 101.695 19.2949 102.258 20.2692C102.848 21.2436 103.577 22.1026 104.448 22.8462C105.345 23.5897 106.356 23.9615 107.483 23.9615C108.508 23.9615 109.353 23.6923 110.019 23.1538C110.685 22.5897 111.018 21.641 111.018 20.3077C111.018 19.1795 110.761 18.1923 110.249 17.3462C109.763 16.5 109.161 15.7821 108.444 15.1923C107.726 14.6026 106.74 13.8974 105.485 13.0769C104.256 12.2821 103.296 11.6026 102.604 11.0385C101.938 10.4744 101.362 9.79487 100.875 9C100.389 8.20513 100.146 7.26923 100.146 6.19231C100.146 4.83333 100.53 3.69231 101.298 2.76923C102.092 1.82051 103.104 1.12821 104.333 0.692308C105.562 0.230769 106.856 0 108.213 0C109.109 0 110.019 0.089744 110.941 0.269232C111.863 0.423078 112.605 0.615385 113.169 0.846154C113.399 0.948719 113.553 1.0641 113.63 1.19231C113.707 1.29487 113.745 1.4359 113.745 1.61538V7.26923C113.745 7.34615 113.681 7.41026 113.553 7.46154C113.425 7.48718 113.348 7.46154 113.323 7.38461L113.015 6.65385C112.375 5.03846 111.619 3.66667 110.749 2.53846C109.903 1.41026 108.712 0.846154 107.176 0.846154C106.151 0.846154 105.306 1.14103 104.64 1.73077C104 2.32051 103.68 3.17949 103.68 4.30769Z" fill="#3A3A3A"/>
<path d="M127.869 10.8846C129.303 10.8846 130.571 11.1667 131.672 11.7308C132.774 12.2949 133.632 13.0641 134.246 14.0385C134.861 15.0128 135.168 16.1154 135.168 17.3462C135.168 18.7308 134.848 19.9744 134.208 21.0769C133.567 22.1795 132.684 23.0513 131.557 23.6923C130.43 24.3077 129.188 24.6154 127.831 24.6154C126.96 24.6154 126.038 24.5769 125.065 24.5C124.706 24.4744 124.283 24.4487 123.797 24.4231C123.31 24.3974 122.76 24.3846 122.145 24.3846L119.609 24.4231C119.148 24.4487 118.508 24.4615 117.689 24.4615C117.637 24.4615 117.612 24.3846 117.612 24.2308C117.612 24.0769 117.637 24 117.689 24C118.713 24 119.456 23.9359 119.917 23.8077C120.403 23.6795 120.736 23.4359 120.916 23.0769C121.095 22.6923 121.184 22.1154 121.184 21.3462V3.53846C121.184 2.76923 121.095 2.20513 120.916 1.84616C120.762 1.48718 120.442 1.24359 119.955 1.11538C119.494 0.961538 118.764 0.884615 117.765 0.884615C117.689 0.884615 117.65 0.807693 117.65 0.653847C117.65 0.500001 117.689 0.423078 117.765 0.423078L119.609 0.461539C120.634 0.512821 121.479 0.538461 122.145 0.538461C122.606 0.538461 123.041 0.525641 123.451 0.5C123.861 0.47436 124.219 0.448719 124.527 0.423078C125.346 0.346155 126.051 0.307693 126.64 0.307693C128.765 0.307693 130.328 0.794872 131.326 1.76923C132.351 2.71795 132.863 3.9359 132.863 5.42308C132.863 6.83333 132.364 8.05128 131.365 9.07692C130.366 10.1026 129.06 10.8205 127.446 11.2308L127.869 10.8846ZM125.756 0.807693C125.039 0.807693 124.514 0.858975 124.181 0.96154C123.848 1.0641 123.592 1.30769 123.413 1.69231C123.259 2.07692 123.182 2.71795 123.182 3.61538V11.1538L122.03 10.8462C123.131 10.9231 124.117 10.9615 124.988 10.9615C127.011 10.9615 128.484 10.4872 129.406 9.53846C130.328 8.5641 130.789 7.28205 130.789 5.69231C130.789 4.25641 130.379 3.08974 129.559 2.19231C128.765 1.26923 127.498 0.807693 125.756 0.807693ZM127.293 24C129.188 24 130.597 23.5128 131.519 22.5385C132.466 21.5385 132.94 20.1282 132.94 18.3077C132.94 16.359 132.338 14.7821 131.134 13.5769C129.956 12.3462 128.356 11.7179 126.332 11.6923C124.77 11.641 123.374 11.7051 122.145 11.8846L123.182 11.4615V21.3462C123.182 22.0385 123.285 22.5769 123.489 22.9615C123.72 23.3205 124.13 23.5897 124.719 23.7692C125.308 23.9231 126.166 24 127.293 24Z" fill="#3A3A3A"/>
<path d="M150.375 24.9231C147.993 24.9231 145.867 24.3718 143.997 23.2692C142.153 22.141 140.719 20.6282 139.695 18.7308C138.696 16.8077 138.197 14.7179 138.197 12.4615C138.197 9.82051 138.862 7.5641 140.194 5.69231C141.526 3.79487 143.229 2.37179 145.304 1.42308C147.404 0.474359 149.542 0 151.719 0C154.152 0 156.291 0.576923 158.135 1.73077C159.979 2.85897 161.387 4.35897 162.361 6.23077C163.36 8.10256 163.859 10.0897 163.859 12.1923C163.859 14.5256 163.244 16.6667 162.015 18.6154C160.786 20.5641 159.134 22.1026 157.059 23.2308C155.01 24.359 152.782 24.9231 150.375 24.9231ZM151.758 24.1538C153.576 24.1538 155.215 23.7308 156.675 22.8846C158.135 22.0385 159.287 20.7949 160.133 19.1538C160.978 17.5128 161.4 15.5513 161.4 13.2692C161.4 10.859 160.926 8.71795 159.979 6.84615C159.057 4.94872 157.738 3.47436 156.022 2.42308C154.332 1.3718 152.36 0.846154 150.106 0.846154C147.135 0.846154 144.817 1.76923 143.152 3.61538C141.488 5.46154 140.655 7.97436 140.655 11.1538C140.655 13.5385 141.116 15.7308 142.038 17.7308C142.986 19.7051 144.305 21.2692 145.995 22.4231C147.685 23.5769 149.606 24.1538 151.758 24.1538Z" fill="#3A3A3A"/>
<path d="M179.019 24.9231C176.637 24.9231 174.512 24.3718 172.642 23.2692C170.798 22.141 169.364 20.6282 168.339 18.7308C167.34 16.8077 166.841 14.7179 166.841 12.4615C166.841 9.82051 167.507 7.5641 168.839 5.69231C170.171 3.79487 171.874 2.37179 173.948 1.42308C176.048 0.474359 178.187 0 180.364 0C182.797 0 184.935 0.576923 186.779 1.73077C188.623 2.85897 190.032 4.35897 191.005 6.23077C192.004 8.10256 192.504 10.0897 192.504 12.1923C192.504 14.5256 191.889 16.6667 190.66 18.6154C189.43 20.5641 187.778 22.1026 185.704 23.2308C183.655 24.359 181.427 24.9231 179.019 24.9231ZM180.402 24.1538C182.221 24.1538 183.86 23.7308 185.32 22.8846C186.779 22.0385 187.932 20.7949 188.777 19.1538C189.622 17.5128 190.045 15.5513 190.045 13.2692C190.045 10.859 189.571 8.71795 188.623 6.84615C187.701 4.94872 186.382 3.47436 184.667 2.42308C182.976 1.3718 181.004 0.846154 178.75 0.846154C175.779 0.846154 173.462 1.76923 171.797 3.61538C170.132 5.46154 169.3 7.97436 169.3 11.1538C169.3 13.5385 169.761 15.7308 170.683 17.7308C171.63 19.7051 172.949 21.2692 174.64 22.4231C176.33 23.5769 178.251 24.1538 180.402 24.1538Z" fill="#3A3A3A"/>
<path d="M198.444 3.53846C198.444 2.76923 198.354 2.20513 198.175 1.84616C198.021 1.48718 197.701 1.24359 197.214 1.11538C196.753 0.961538 196.023 0.884615 195.025 0.884615C194.973 0.884615 194.948 0.807693 194.948 0.653847C194.948 0.500001 194.973 0.423078 195.025 0.423078L196.907 0.461539C197.983 0.512821 198.828 0.538461 199.443 0.538461C200.134 0.538461 201.018 0.512821 202.093 0.461539L203.899 0.423078C203.95 0.423078 203.976 0.500001 203.976 0.653847C203.976 0.807693 203.95 0.884615 203.899 0.884615C202.9 0.884615 202.157 0.961538 201.671 1.11538C201.21 1.26923 200.89 1.53846 200.71 1.92308C200.557 2.28205 200.48 2.84615 200.48 3.61538V21.3462C200.48 22.141 200.557 22.7179 200.71 23.0769C200.89 23.4359 201.21 23.6795 201.671 23.8077C202.132 23.9359 202.874 24 203.899 24C203.95 24 203.976 24.0769 203.976 24.2308C203.976 24.3846 203.95 24.4615 203.899 24.4615C203.131 24.4615 202.516 24.4487 202.055 24.4231L199.443 24.3846L196.907 24.4231C196.446 24.4487 195.806 24.4615 194.986 24.4615C194.935 24.4615 194.909 24.3846 194.909 24.2308C194.909 24.0769 194.935 24 194.986 24C195.985 24 196.715 23.9359 197.176 23.8077C197.663 23.6795 197.996 23.4359 198.175 23.0769C198.354 22.6923 198.444 22.1154 198.444 21.3462V3.53846ZM201.632 11.0385L203.246 9.88462L208.778 16.8462C210.724 19.2821 212.21 21 213.234 22C214.259 23 215.04 23.5897 215.578 23.7692C216.115 23.9231 216.922 24 217.998 24C218.075 24 218.113 24.0769 218.113 24.2308C218.113 24.3846 218.075 24.4615 217.998 24.4615H213.695C212.799 24.4615 212.261 24.4103 212.082 24.3077C211.902 24.2051 211.429 23.6154 210.66 22.5385C209.918 21.4615 209.008 20.2436 207.933 18.8846L201.632 11.0385ZM208.932 3.30769C209.802 2.4359 210.238 1.83333 210.238 1.5C210.238 1.26923 210.058 1.11539 209.7 1.03846C209.367 0.935898 208.803 0.884615 208.01 0.884615C207.958 0.884615 207.933 0.807693 207.933 0.653847C207.933 0.500001 207.958 0.423078 208.01 0.423078L209.623 0.461539C210.596 0.512821 211.505 0.538461 212.351 0.538461C213.145 0.538461 213.977 0.512821 214.848 0.461539L216.192 0.423078C216.269 0.423078 216.308 0.500001 216.308 0.653847C216.308 0.807693 216.269 0.884615 216.192 0.884615C215.142 0.884615 214.054 1.08974 212.927 1.5C211.826 1.88462 210.788 2.5641 209.815 3.53846L199.98 13.1154L199.058 13.1538L208.932 3.30769Z" fill="#3A3A3A"/>
<path d="M221.126 0.038461C221.868 0.038461 222.445 0.320513 222.854 0.884615C223.29 1.42308 223.507 2.23077 223.507 3.30769C223.507 4.38462 223.277 5.41026 222.816 6.38462C222.381 7.35897 221.727 8.33333 220.857 9.30769C220.831 9.33333 220.793 9.34615 220.741 9.34615C220.665 9.34615 220.601 9.30769 220.549 9.23077C220.498 9.15385 220.498 9.08974 220.549 9.03846C221.087 8.24359 221.446 7.51282 221.625 6.84615C221.804 6.15385 221.894 5.37179 221.894 4.5C221.894 3.80769 221.791 3.24359 221.587 2.80769C221.382 2.37179 221.113 1.98718 220.78 1.65385L222.24 1.38462C222.265 1.82051 222.15 2.15385 221.894 2.38462C221.663 2.61539 221.343 2.73077 220.934 2.73077C220.498 2.73077 220.152 2.61539 219.896 2.38462C219.666 2.12821 219.551 1.79487 219.551 1.38462C219.551 0.487179 220.076 0.038461 221.126 0.038461Z" fill="#3A3A3A"/>
<path d="M229.782 5.07692C229.782 6.10256 230.026 6.98718 230.512 7.73077C230.999 8.47436 231.588 9.10256 232.279 9.61539C232.996 10.1026 233.983 10.7179 235.237 11.4615C236.569 12.2564 237.594 12.9231 238.311 13.4615C239.054 13.9744 239.681 14.641 240.193 15.4615C240.731 16.2821 241 17.2692 241 18.4231C241 19.6282 240.705 20.7308 240.116 21.7308C239.527 22.7051 238.644 23.4872 237.466 24.0769C236.313 24.641 234.892 24.9231 233.201 24.9231C232.305 24.9231 231.447 24.8205 230.627 24.6154C229.833 24.4359 228.95 24.1026 227.977 23.6154C227.849 23.5385 227.759 23.4487 227.708 23.3462C227.682 23.2436 227.657 23.0897 227.631 22.8846L227.055 17.8846V17.8462C227.055 17.7436 227.119 17.6923 227.247 17.6923C227.375 17.6667 227.452 17.7051 227.477 17.8077C227.733 19.5769 228.412 21.1154 229.513 22.4231C230.615 23.7308 232.126 24.3846 234.047 24.3846C235.404 24.3846 236.544 24.0128 237.466 23.2692C238.413 22.5256 238.887 21.359 238.887 19.7692C238.887 18.6154 238.631 17.6282 238.119 16.8077C237.607 15.9615 236.979 15.2692 236.236 14.7308C235.519 14.1667 234.533 13.5128 233.278 12.7692C232.049 12.0513 231.076 11.4231 230.359 10.8846C229.667 10.3462 229.065 9.67949 228.553 8.88461C228.066 8.0641 227.823 7.08974 227.823 5.96154C227.823 4.67949 228.143 3.58974 228.783 2.69231C229.449 1.79487 230.307 1.12821 231.357 0.692308C232.407 0.230769 233.534 0 234.738 0C236.147 0 237.607 0.307692 239.118 0.923076C239.502 1.07692 239.694 1.29487 239.694 1.57692L240.04 5.65385C240.04 5.75641 239.963 5.80769 239.809 5.80769C239.681 5.80769 239.604 5.75641 239.579 5.65385C239.476 4.32051 238.977 3.12821 238.08 2.07692C237.184 1.02564 235.903 0.5 234.239 0.5C232.702 0.5 231.575 0.948719 230.858 1.84616C230.141 2.74359 229.782 3.82051 229.782 5.07692Z" fill="#3A3A3A"/>
</svg>
